<mxfile host="65bd71144e">
    <diagram id="2GQ9hFRbu9RMDSkpDfUs" name="Conceptual">
        <mxGraphModel dx="572" dy="478" grid="1" gridSize="10" guides="1" tooltips="1" connect="1" arrows="1" fold="1" page="1" pageScale="1" pageWidth="850" pageHeight="1100" math="0" shadow="0">
            <root>
                <mxCell id="0"/>
                <mxCell id="1" parent="0"/>
                <mxCell id="MVB2RBPoKZCie0j9NSNF-1" value="" style="edgeStyle=none;html=1;endArrow=none;endFill=0;" parent="1" source="MVB2RBPoKZCie0j9NSNF-2" edge="1">
                    <mxGeometry relative="1" as="geometry">
                        <mxPoint x="495" y="230" as="targetPoint"/>
                    </mxGeometry>
                </mxCell>
                <mxCell id="MVB2RBPoKZCie0j9NSNF-2" value="Libro" style="rounded=0;whiteSpace=wrap;html=1;" parent="1" vertex="1">
                    <mxGeometry x="275" y="200" width="120" height="60" as="geometry"/>
                </mxCell>
                <mxCell id="MVB2RBPoKZCie0j9NSNF-3" value="" style="edgeStyle=none;html=1;endArrow=none;endFill=0;" parent="1" source="MVB2RBPoKZCie0j9NSNF-4" edge="1">
                    <mxGeometry relative="1" as="geometry">
                        <mxPoint x="495" y="460" as="targetPoint"/>
                    </mxGeometry>
                </mxCell>
                <mxCell id="MVB2RBPoKZCie0j9NSNF-4" value="Historial de préstamos" style="rounded=1;whiteSpace=wrap;html=1;strokeColor=default;arcSize=0;" parent="1" vertex="1">
                    <mxGeometry x="275" y="430" width="120" height="60" as="geometry"/>
                </mxCell>
                <mxCell id="MVB2RBPoKZCie0j9NSNF-5" value="" style="edgeStyle=none;html=1;endArrow=none;endFill=0;" parent="1" source="MVB2RBPoKZCie0j9NSNF-6" edge="1">
                    <mxGeometry relative="1" as="geometry">
                        <mxPoint x="425" y="460" as="targetPoint"/>
                    </mxGeometry>
                </mxCell>
                <mxCell id="MVB2RBPoKZCie0j9NSNF-6" value="Socio" style="rounded=1;whiteSpace=wrap;html=1;arcSize=0;" parent="1" vertex="1">
                    <mxGeometry x="525" y="430" width="120" height="60" as="geometry"/>
                </mxCell>
                <mxCell id="MVB2RBPoKZCie0j9NSNF-7" value="" style="edgeStyle=none;html=1;endArrow=none;endFill=0;" parent="1" source="MVB2RBPoKZCie0j9NSNF-8" edge="1">
                    <mxGeometry relative="1" as="geometry">
                        <mxPoint x="425" y="230" as="targetPoint"/>
                    </mxGeometry>
                </mxCell>
                <mxCell id="MVB2RBPoKZCie0j9NSNF-8" value="Autor" style="rounded=1;whiteSpace=wrap;html=1;arcSize=0;" parent="1" vertex="1">
                    <mxGeometry x="525" y="200" width="120" height="60" as="geometry"/>
                </mxCell>
                <mxCell id="MVB2RBPoKZCie0j9NSNF-9" value="" style="edgeStyle=none;html=1;endArrow=none;endFill=0;" parent="1" source="MVB2RBPoKZCie0j9NSNF-10" target="MVB2RBPoKZCie0j9NSNF-2" edge="1">
                    <mxGeometry relative="1" as="geometry">
                        <mxPoint x="215" y="189.9999999999999" as="targetPoint"/>
                    </mxGeometry>
                </mxCell>
                <mxCell id="MVB2RBPoKZCie0j9NSNF-10" value="título" style="ellipse;whiteSpace=wrap;html=1;" parent="1" vertex="1">
                    <mxGeometry x="155" y="20" width="120" height="80" as="geometry"/>
                </mxCell>
                <mxCell id="MVB2RBPoKZCie0j9NSNF-11" value="fecha de nacimiento" style="ellipse;whiteSpace=wrap;html=1;" parent="1" vertex="1">
                    <mxGeometry x="715" y="220" width="120" height="80" as="geometry"/>
                </mxCell>
                <mxCell id="MVB2RBPoKZCie0j9NSNF-12" value="apellido" style="ellipse;whiteSpace=wrap;html=1;" parent="1" vertex="1">
                    <mxGeometry x="715" y="120" width="120" height="80" as="geometry"/>
                </mxCell>
                <mxCell id="MVB2RBPoKZCie0j9NSNF-13" value="nombre" style="ellipse;whiteSpace=wrap;html=1;" parent="1" vertex="1">
                    <mxGeometry x="715" y="20" width="120" height="80" as="geometry"/>
                </mxCell>
                <mxCell id="MVB2RBPoKZCie0j9NSNF-14" value="&lt;u&gt;id&lt;/u&gt;" style="ellipse;whiteSpace=wrap;html=1;" parent="1" vertex="1">
                    <mxGeometry x="575" y="20" width="120" height="80" as="geometry"/>
                </mxCell>
                <mxCell id="MVB2RBPoKZCie0j9NSNF-17" value="" style="edgeStyle=none;html=1;endArrow=none;endFill=0;" parent="1" source="MVB2RBPoKZCie0j9NSNF-18" target="MVB2RBPoKZCie0j9NSNF-2" edge="1">
                    <mxGeometry relative="1" as="geometry"/>
                </mxCell>
                <mxCell id="MVB2RBPoKZCie0j9NSNF-18" value="&lt;u&gt;ISBN&lt;/u&gt;" style="ellipse;whiteSpace=wrap;html=1;" parent="1" vertex="1">
                    <mxGeometry x="295" y="20" width="120" height="80" as="geometry"/>
                </mxCell>
                <mxCell id="MVB2RBPoKZCie0j9NSNF-19" value="" style="edgeStyle=none;html=1;endArrow=none;endFill=0;" parent="1" source="MVB2RBPoKZCie0j9NSNF-20" target="MVB2RBPoKZCie0j9NSNF-2" edge="1">
                    <mxGeometry relative="1" as="geometry">
                        <mxPoint x="215" y="159.9999999999999" as="targetPoint"/>
                    </mxGeometry>
                </mxCell>
                <mxCell id="MVB2RBPoKZCie0j9NSNF-20" value="código autor" style="ellipse;whiteSpace=wrap;html=1;" parent="1" vertex="1">
                    <mxGeometry x="15" y="120" width="120" height="80" as="geometry"/>
                </mxCell>
                <mxCell id="MVB2RBPoKZCie0j9NSNF-21" value="" style="edgeStyle=none;html=1;endArrow=none;endFill=0;" parent="1" source="MVB2RBPoKZCie0j9NSNF-22" target="MVB2RBPoKZCie0j9NSNF-2" edge="1">
                    <mxGeometry relative="1" as="geometry">
                        <mxPoint x="75" y="-70" as="targetPoint"/>
                    </mxGeometry>
                </mxCell>
                <mxCell id="MVB2RBPoKZCie0j9NSNF-22" value="páginas" style="ellipse;whiteSpace=wrap;html=1;" parent="1" vertex="1">
                    <mxGeometry x="15" y="20" width="120" height="80" as="geometry"/>
                </mxCell>
                <mxCell id="MVB2RBPoKZCie0j9NSNF-23" value="tiene&amp;nbsp;" style="rhombus;whiteSpace=wrap;html=1;" parent="1" vertex="1">
                    <mxGeometry x="420" y="420" width="80" height="80" as="geometry"/>
                </mxCell>
                <mxCell id="MVB2RBPoKZCie0j9NSNF-24" value="" style="edgeStyle=none;html=1;endArrow=none;endFill=0;" parent="1" target="MVB2RBPoKZCie0j9NSNF-2" edge="1">
                    <mxGeometry relative="1" as="geometry">
                        <mxPoint x="335" y="280" as="sourcePoint"/>
                    </mxGeometry>
                </mxCell>
                <mxCell id="MVB2RBPoKZCie0j9NSNF-25" value="" style="edgeStyle=none;html=1;endArrow=none;endFill=0;" parent="1" target="MVB2RBPoKZCie0j9NSNF-4" edge="1">
                    <mxGeometry relative="1" as="geometry">
                        <mxPoint x="335" y="410" as="sourcePoint"/>
                    </mxGeometry>
                </mxCell>
                <mxCell id="MVB2RBPoKZCie0j9NSNF-26" value="" style="edgeStyle=none;html=1;endArrow=none;endFill=0;exitX=0.5;exitY=1;exitDx=0;exitDy=0;" parent="1" target="MVB2RBPoKZCie0j9NSNF-4" edge="1">
                    <mxGeometry relative="1" as="geometry">
                        <mxPoint x="335" y="370" as="sourcePoint"/>
                    </mxGeometry>
                </mxCell>
                <mxCell id="MVB2RBPoKZCie0j9NSNF-27" value="" style="edgeStyle=none;html=1;endArrow=none;endFill=0;" parent="1" target="MVB2RBPoKZCie0j9NSNF-2" edge="1">
                    <mxGeometry relative="1" as="geometry">
                        <mxPoint x="335" y="280" as="sourcePoint"/>
                    </mxGeometry>
                </mxCell>
                <mxCell id="MVB2RBPoKZCie0j9NSNF-28" value="" style="edgeStyle=none;html=1;endArrow=none;endFill=0;exitX=0.5;exitY=0;exitDx=0;exitDy=0;" parent="1" target="MVB2RBPoKZCie0j9NSNF-2" edge="1">
                    <mxGeometry relative="1" as="geometry">
                        <mxPoint x="335" y="310" as="sourcePoint"/>
                    </mxGeometry>
                </mxCell>
                <mxCell id="MVB2RBPoKZCie0j9NSNF-29" value="pertenece" style="rhombus;whiteSpace=wrap;html=1;" parent="1" vertex="1">
                    <mxGeometry x="420" y="190" width="80" height="80" as="geometry"/>
                </mxCell>
                <mxCell id="MVB2RBPoKZCie0j9NSNF-30" value="teléfono" style="ellipse;whiteSpace=wrap;html=1;" parent="1" vertex="1">
                    <mxGeometry x="450" y="610" width="120" height="80" as="geometry"/>
                </mxCell>
                <mxCell id="MVB2RBPoKZCie0j9NSNF-31" value="nombre" style="ellipse;whiteSpace=wrap;html=1;" parent="1" vertex="1">
                    <mxGeometry x="730" y="510" width="120" height="80" as="geometry"/>
                </mxCell>
                <mxCell id="MVB2RBPoKZCie0j9NSNF-32" value="&lt;u&gt;rut&lt;/u&gt;" style="ellipse;whiteSpace=wrap;html=1;" parent="1" vertex="1">
                    <mxGeometry x="730" y="410" width="120" height="80" as="geometry"/>
                </mxCell>
                <mxCell id="MVB2RBPoKZCie0j9NSNF-33" value="" style="edgeStyle=none;html=1;endArrow=none;endFill=0;" parent="1" source="MVB2RBPoKZCie0j9NSNF-34" target="MVB2RBPoKZCie0j9NSNF-4" edge="1">
                    <mxGeometry relative="1" as="geometry">
                        <mxPoint x="360" y="520" as="targetPoint"/>
                    </mxGeometry>
                </mxCell>
                <mxCell id="MVB2RBPoKZCie0j9NSNF-34" value="fecha de devolución" style="ellipse;whiteSpace=wrap;html=1;" parent="1" vertex="1">
                    <mxGeometry x="300" y="610" width="120" height="80" as="geometry"/>
                </mxCell>
                <mxCell id="MVB2RBPoKZCie0j9NSNF-35" value="" style="edgeStyle=none;html=1;endArrow=none;endFill=0;" parent="1" source="MVB2RBPoKZCie0j9NSNF-36" target="MVB2RBPoKZCie0j9NSNF-4" edge="1">
                    <mxGeometry relative="1" as="geometry">
                        <mxPoint x="215" y="520" as="targetPoint"/>
                    </mxGeometry>
                </mxCell>
                <mxCell id="MVB2RBPoKZCie0j9NSNF-36" value="fecha del préstamo" style="ellipse;whiteSpace=wrap;html=1;" parent="1" vertex="1">
                    <mxGeometry x="155" y="610" width="120" height="80" as="geometry"/>
                </mxCell>
                <mxCell id="MVB2RBPoKZCie0j9NSNF-37" value="" style="edgeStyle=none;html=1;endArrow=none;endFill=0;" parent="1" source="MVB2RBPoKZCie0j9NSNF-38" target="MVB2RBPoKZCie0j9NSNF-4" edge="1">
                    <mxGeometry relative="1" as="geometry">
                        <mxPoint x="75" y="780" as="targetPoint"/>
                    </mxGeometry>
                </mxCell>
                <mxCell id="MVB2RBPoKZCie0j9NSNF-38" value="libro" style="ellipse;whiteSpace=wrap;html=1;" parent="1" vertex="1">
                    <mxGeometry x="15" y="610" width="120" height="80" as="geometry"/>
                </mxCell>
                <mxCell id="MVB2RBPoKZCie0j9NSNF-39" value="" style="edgeStyle=none;html=1;endArrow=none;endFill=0;" parent="1" source="MVB2RBPoKZCie0j9NSNF-40" target="MVB2RBPoKZCie0j9NSNF-4" edge="1">
                    <mxGeometry relative="1" as="geometry">
                        <mxPoint x="215" y="550" as="targetPoint"/>
                    </mxGeometry>
                </mxCell>
                <mxCell id="MVB2RBPoKZCie0j9NSNF-40" value="socio" style="ellipse;whiteSpace=wrap;html=1;" parent="1" vertex="1">
                    <mxGeometry x="15" y="510" width="120" height="80" as="geometry"/>
                </mxCell>
                <mxCell id="MVB2RBPoKZCie0j9NSNF-41" value="" style="edgeStyle=none;html=1;endArrow=none;endFill=0;entryX=0;entryY=0.5;entryDx=0;entryDy=0;" parent="1" source="MVB2RBPoKZCie0j9NSNF-42" target="MVB2RBPoKZCie0j9NSNF-4" edge="1">
                    <mxGeometry relative="1" as="geometry">
                        <mxPoint x="215" y="450" as="targetPoint"/>
                    </mxGeometry>
                </mxCell>
                <mxCell id="MVB2RBPoKZCie0j9NSNF-42" value="&lt;u&gt;id&lt;/u&gt;" style="ellipse;whiteSpace=wrap;html=1;" parent="1" vertex="1">
                    <mxGeometry x="15" y="410" width="120" height="80" as="geometry"/>
                </mxCell>
                <mxCell id="MVB2RBPoKZCie0j9NSNF-43" value="n" style="text;html=1;resizable=0;autosize=1;align=center;verticalAlign=middle;points=[];fillColor=none;strokeColor=none;rounded=0;" parent="1" vertex="1">
                    <mxGeometry x="340" y="410" width="20" height="20" as="geometry"/>
                </mxCell>
                <mxCell id="MVB2RBPoKZCie0j9NSNF-44" value="1" style="text;html=1;resizable=0;autosize=1;align=center;verticalAlign=middle;points=[];fillColor=none;strokeColor=none;rounded=0;" parent="1" vertex="1">
                    <mxGeometry x="340" y="260" width="20" height="20" as="geometry"/>
                </mxCell>
                <mxCell id="MVB2RBPoKZCie0j9NSNF-45" value="1,2" style="text;html=1;resizable=0;autosize=1;align=center;verticalAlign=middle;points=[];fillColor=none;strokeColor=none;rounded=0;" parent="1" vertex="1">
                    <mxGeometry x="500" y="240" width="30" height="20" as="geometry"/>
                </mxCell>
                <mxCell id="MVB2RBPoKZCie0j9NSNF-46" value="n" style="text;html=1;resizable=0;autosize=1;align=center;verticalAlign=middle;points=[];fillColor=none;strokeColor=none;rounded=0;" parent="1" vertex="1">
                    <mxGeometry x="395" y="240" width="20" height="20" as="geometry"/>
                </mxCell>
                <mxCell id="MVB2RBPoKZCie0j9NSNF-47" value="n" style="text;html=1;resizable=0;autosize=1;align=center;verticalAlign=middle;points=[];fillColor=none;strokeColor=none;rounded=0;" parent="1" vertex="1">
                    <mxGeometry x="395" y="430" width="20" height="20" as="geometry"/>
                </mxCell>
                <mxCell id="MVB2RBPoKZCie0j9NSNF-48" value="1" style="text;html=1;resizable=0;autosize=1;align=center;verticalAlign=middle;points=[];fillColor=none;strokeColor=none;rounded=0;" parent="1" vertex="1">
                    <mxGeometry x="505" y="430" width="20" height="20" as="geometry"/>
                </mxCell>
                <mxCell id="MVB2RBPoKZCie0j9NSNF-49" value="" style="endArrow=none;html=1;" parent="1" source="MVB2RBPoKZCie0j9NSNF-14" target="MVB2RBPoKZCie0j9NSNF-8" edge="1">
                    <mxGeometry width="50" height="50" relative="1" as="geometry">
                        <mxPoint x="605" y="290" as="sourcePoint"/>
                        <mxPoint x="655" y="240" as="targetPoint"/>
                    </mxGeometry>
                </mxCell>
                <mxCell id="MVB2RBPoKZCie0j9NSNF-50" value="" style="endArrow=none;html=1;" parent="1" source="MVB2RBPoKZCie0j9NSNF-8" target="MVB2RBPoKZCie0j9NSNF-11" edge="1">
                    <mxGeometry width="50" height="50" relative="1" as="geometry">
                        <mxPoint x="605" y="290" as="sourcePoint"/>
                        <mxPoint x="655" y="240" as="targetPoint"/>
                    </mxGeometry>
                </mxCell>
                <mxCell id="MVB2RBPoKZCie0j9NSNF-51" value="" style="endArrow=none;html=1;" parent="1" source="MVB2RBPoKZCie0j9NSNF-8" target="MVB2RBPoKZCie0j9NSNF-12" edge="1">
                    <mxGeometry width="50" height="50" relative="1" as="geometry">
                        <mxPoint x="605" y="290" as="sourcePoint"/>
                        <mxPoint x="655" y="240" as="targetPoint"/>
                    </mxGeometry>
                </mxCell>
                <mxCell id="MVB2RBPoKZCie0j9NSNF-52" value="" style="endArrow=none;html=1;entryX=0.049;entryY=0.754;entryDx=0;entryDy=0;entryPerimeter=0;" parent="1" source="MVB2RBPoKZCie0j9NSNF-8" target="MVB2RBPoKZCie0j9NSNF-13" edge="1">
                    <mxGeometry width="50" height="50" relative="1" as="geometry">
                        <mxPoint x="605" y="290" as="sourcePoint"/>
                        <mxPoint x="655" y="240" as="targetPoint"/>
                    </mxGeometry>
                </mxCell>
                <mxCell id="MVB2RBPoKZCie0j9NSNF-53" value="" style="endArrow=none;html=1;" parent="1" source="MVB2RBPoKZCie0j9NSNF-6" target="MVB2RBPoKZCie0j9NSNF-31" edge="1">
                    <mxGeometry width="50" height="50" relative="1" as="geometry">
                        <mxPoint x="625" y="460" as="sourcePoint"/>
                        <mxPoint x="655" y="410" as="targetPoint"/>
                    </mxGeometry>
                </mxCell>
                <mxCell id="MVB2RBPoKZCie0j9NSNF-54" value="" style="endArrow=none;html=1;" parent="1" source="MVB2RBPoKZCie0j9NSNF-30" target="MVB2RBPoKZCie0j9NSNF-6" edge="1">
                    <mxGeometry width="50" height="50" relative="1" as="geometry">
                        <mxPoint x="605" y="460" as="sourcePoint"/>
                        <mxPoint x="655" y="410" as="targetPoint"/>
                    </mxGeometry>
                </mxCell>
                <mxCell id="MVB2RBPoKZCie0j9NSNF-55" value="" style="endArrow=none;html=1;" parent="1" source="MVB2RBPoKZCie0j9NSNF-6" target="MVB2RBPoKZCie0j9NSNF-32" edge="1">
                    <mxGeometry width="50" height="50" relative="1" as="geometry">
                        <mxPoint x="605" y="460" as="sourcePoint"/>
                        <mxPoint x="655" y="410" as="targetPoint"/>
                    </mxGeometry>
                </mxCell>
                <mxCell id="MVB2RBPoKZCie0j9NSNF-56" value="tiene" style="rhombus;whiteSpace=wrap;html=1;rounded=1;strokeColor=default;arcSize=0;" parent="1" vertex="1">
                    <mxGeometry x="295" y="300" width="80" height="80" as="geometry"/>
                </mxCell>
                <mxCell id="MVB2RBPoKZCie0j9NSNF-57" value="dirección" style="ellipse;whiteSpace=wrap;html=1;" parent="1" vertex="1">
                    <mxGeometry x="590" y="610" width="120" height="80" as="geometry"/>
                </mxCell>
                <mxCell id="MVB2RBPoKZCie0j9NSNF-58" value="apellido" style="ellipse;whiteSpace=wrap;html=1;" parent="1" vertex="1">
                    <mxGeometry x="730" y="610" width="120" height="80" as="geometry"/>
                </mxCell>
                <mxCell id="MVB2RBPoKZCie0j9NSNF-59" value="fecha de muerte" style="ellipse;whiteSpace=wrap;html=1;" parent="1" vertex="1">
                    <mxGeometry x="715" y="320" width="120" height="80" as="geometry"/>
                </mxCell>
                <mxCell id="MVB2RBPoKZCie0j9NSNF-60" value="" style="endArrow=none;html=1;" parent="1" source="MVB2RBPoKZCie0j9NSNF-8" target="MVB2RBPoKZCie0j9NSNF-59" edge="1">
                    <mxGeometry width="50" height="50" relative="1" as="geometry">
                        <mxPoint x="570" y="370" as="sourcePoint"/>
                        <mxPoint x="620" y="320" as="targetPoint"/>
                    </mxGeometry>
                </mxCell>
                <mxCell id="MVB2RBPoKZCie0j9NSNF-61" value="" style="endArrow=none;html=1;" parent="1" source="MVB2RBPoKZCie0j9NSNF-57" target="MVB2RBPoKZCie0j9NSNF-6" edge="1">
                    <mxGeometry width="50" height="50" relative="1" as="geometry">
                        <mxPoint x="570" y="570" as="sourcePoint"/>
                        <mxPoint x="620" y="520" as="targetPoint"/>
                    </mxGeometry>
                </mxCell>
                <mxCell id="MVB2RBPoKZCie0j9NSNF-62" value="" style="endArrow=none;html=1;" parent="1" source="MVB2RBPoKZCie0j9NSNF-58" target="MVB2RBPoKZCie0j9NSNF-6" edge="1">
                    <mxGeometry width="50" height="50" relative="1" as="geometry">
                        <mxPoint x="570" y="570" as="sourcePoint"/>
                        <mxPoint x="620" y="520" as="targetPoint"/>
                    </mxGeometry>
                </mxCell>
                <mxCell id="KNwBPIel24C8yJjLiluv-1" value="código coautor" style="ellipse;whiteSpace=wrap;html=1;" parent="1" vertex="1">
                    <mxGeometry x="15" y="230" width="120" height="80" as="geometry"/>
                </mxCell>
                <mxCell id="KNwBPIel24C8yJjLiluv-2" value="" style="endArrow=none;html=1;" parent="1" source="KNwBPIel24C8yJjLiluv-1" target="MVB2RBPoKZCie0j9NSNF-2" edge="1">
                    <mxGeometry width="50" height="50" relative="1" as="geometry">
                        <mxPoint x="150" y="170" as="sourcePoint"/>
                        <mxPoint x="200" y="120" as="targetPoint"/>
                    </mxGeometry>
                </mxCell>
            </root>
        </mxGraphModel>
    </diagram>
    <diagram id="2vmUV6exn_A3c8iXyWas" name="Relacional">
        <mxGraphModel dx="572" dy="478" grid="1" gridSize="10" guides="1" tooltips="1" connect="1" arrows="1" fold="1" page="1" pageScale="1" pageWidth="850" pageHeight="1100" math="0" shadow="0">
            <root>
                <mxCell id="zY6Jlw60NXrplqbknU2e-0"/>
                <mxCell id="zY6Jlw60NXrplqbknU2e-1" parent="zY6Jlw60NXrplqbknU2e-0"/>
                <mxCell id="rIVDowIaaQSxH50mQadC-0" value="Libro" style="swimlane;fontStyle=0;childLayout=stackLayout;horizontal=1;startSize=30;horizontalStack=0;resizeParent=1;resizeParentMax=0;resizeLast=0;collapsible=1;marginBottom=0;strokeColor=default;rounded=1;arcSize=0;" parent="zY6Jlw60NXrplqbknU2e-1" vertex="1">
                    <mxGeometry x="120" y="135" width="140" height="120" as="geometry"/>
                </mxCell>
                <mxCell id="rIVDowIaaQSxH50mQadC-1" value="isbn(PK)" style="text;strokeColor=none;fillColor=none;align=left;verticalAlign=middle;spacingLeft=4;spacingRight=4;overflow=hidden;points=[[0,0.5],[1,0.5]];portConstraint=eastwest;rotatable=0;fontStyle=0" parent="rIVDowIaaQSxH50mQadC-0" vertex="1">
                    <mxGeometry y="30" width="140" height="30" as="geometry"/>
                </mxCell>
                <mxCell id="rIVDowIaaQSxH50mQadC-2" value="titulo" style="text;strokeColor=none;fillColor=none;align=left;verticalAlign=middle;spacingLeft=4;spacingRight=4;overflow=hidden;points=[[0,0.5],[1,0.5]];portConstraint=eastwest;rotatable=0;" parent="rIVDowIaaQSxH50mQadC-0" vertex="1">
                    <mxGeometry y="60" width="140" height="30" as="geometry"/>
                </mxCell>
                <mxCell id="rIVDowIaaQSxH50mQadC-3" value="paginas" style="text;strokeColor=none;fillColor=none;align=left;verticalAlign=middle;spacingLeft=4;spacingRight=4;overflow=hidden;points=[[0,0.5],[1,0.5]];portConstraint=eastwest;rotatable=0;" parent="rIVDowIaaQSxH50mQadC-0" vertex="1">
                    <mxGeometry y="90" width="140" height="30" as="geometry"/>
                </mxCell>
                <mxCell id="rIVDowIaaQSxH50mQadC-7" value="Socio" style="swimlane;fontStyle=0;childLayout=stackLayout;horizontal=1;startSize=30;horizontalStack=0;resizeParent=1;resizeParentMax=0;resizeLast=0;collapsible=1;marginBottom=0;strokeColor=default;rounded=1;arcSize=0;" parent="zY6Jlw60NXrplqbknU2e-1" vertex="1">
                    <mxGeometry x="330" y="350" width="140" height="180" as="geometry"/>
                </mxCell>
                <mxCell id="rIVDowIaaQSxH50mQadC-8" value="rut(PK)" style="text;strokeColor=none;fillColor=none;align=left;verticalAlign=middle;spacingLeft=4;spacingRight=4;overflow=hidden;points=[[0,0.5],[1,0.5]];portConstraint=eastwest;rotatable=0;" parent="rIVDowIaaQSxH50mQadC-7" vertex="1">
                    <mxGeometry y="30" width="140" height="30" as="geometry"/>
                </mxCell>
                <mxCell id="rIVDowIaaQSxH50mQadC-9" value="nombre" style="text;strokeColor=none;fillColor=none;align=left;verticalAlign=middle;spacingLeft=4;spacingRight=4;overflow=hidden;points=[[0,0.5],[1,0.5]];portConstraint=eastwest;rotatable=0;" parent="rIVDowIaaQSxH50mQadC-7" vertex="1">
                    <mxGeometry y="60" width="140" height="30" as="geometry"/>
                </mxCell>
                <mxCell id="shl0C7LSqehXJwTSOEXW-3" value="apellido" style="text;strokeColor=none;fillColor=none;align=left;verticalAlign=middle;spacingLeft=4;spacingRight=4;overflow=hidden;points=[[0,0.5],[1,0.5]];portConstraint=eastwest;rotatable=0;" parent="rIVDowIaaQSxH50mQadC-7" vertex="1">
                    <mxGeometry y="90" width="140" height="30" as="geometry"/>
                </mxCell>
                <mxCell id="rIVDowIaaQSxH50mQadC-10" value="direccion" style="text;strokeColor=none;fillColor=none;align=left;verticalAlign=middle;spacingLeft=4;spacingRight=4;overflow=hidden;points=[[0,0.5],[1,0.5]];portConstraint=eastwest;rotatable=0;" parent="rIVDowIaaQSxH50mQadC-7" vertex="1">
                    <mxGeometry y="120" width="140" height="30" as="geometry"/>
                </mxCell>
                <mxCell id="Css39wbeZWYg5R7us_zo-0" value="telefono" style="text;strokeColor=none;fillColor=none;align=left;verticalAlign=middle;spacingLeft=4;spacingRight=4;overflow=hidden;points=[[0,0.5],[1,0.5]];portConstraint=eastwest;rotatable=0;" parent="rIVDowIaaQSxH50mQadC-7" vertex="1">
                    <mxGeometry y="150" width="140" height="30" as="geometry"/>
                </mxCell>
                <mxCell id="rIVDowIaaQSxH50mQadC-11" value="Autor" style="swimlane;fontStyle=0;childLayout=stackLayout;horizontal=1;startSize=30;horizontalStack=0;resizeParent=1;resizeParentMax=0;resizeLast=0;collapsible=1;marginBottom=0;strokeColor=default;rounded=1;arcSize=0;" parent="zY6Jlw60NXrplqbknU2e-1" vertex="1">
                    <mxGeometry x="540" y="105" width="140" height="180" as="geometry"/>
                </mxCell>
                <mxCell id="rIVDowIaaQSxH50mQadC-12" value="id(PK)" style="text;strokeColor=none;fillColor=none;align=left;verticalAlign=middle;spacingLeft=4;spacingRight=4;overflow=hidden;points=[[0,0.5],[1,0.5]];portConstraint=eastwest;rotatable=0;" parent="rIVDowIaaQSxH50mQadC-11" vertex="1">
                    <mxGeometry y="30" width="140" height="30" as="geometry"/>
                </mxCell>
                <mxCell id="rIVDowIaaQSxH50mQadC-13" value="nombre" style="text;strokeColor=none;fillColor=none;align=left;verticalAlign=middle;spacingLeft=4;spacingRight=4;overflow=hidden;points=[[0,0.5],[1,0.5]];portConstraint=eastwest;rotatable=0;" parent="rIVDowIaaQSxH50mQadC-11" vertex="1">
                    <mxGeometry y="60" width="140" height="30" as="geometry"/>
                </mxCell>
                <mxCell id="rIVDowIaaQSxH50mQadC-14" value="apellido" style="text;strokeColor=none;fillColor=none;align=left;verticalAlign=middle;spacingLeft=4;spacingRight=4;overflow=hidden;points=[[0,0.5],[1,0.5]];portConstraint=eastwest;rotatable=0;" parent="rIVDowIaaQSxH50mQadC-11" vertex="1">
                    <mxGeometry y="90" width="140" height="30" as="geometry"/>
                </mxCell>
                <mxCell id="kOvMP3PwCGXy8rCmkbg1-0" value="fecha_nacimiento" style="text;strokeColor=none;fillColor=none;align=left;verticalAlign=middle;spacingLeft=4;spacingRight=4;overflow=hidden;points=[[0,0.5],[1,0.5]];portConstraint=eastwest;rotatable=0;" parent="rIVDowIaaQSxH50mQadC-11" vertex="1">
                    <mxGeometry y="120" width="140" height="30" as="geometry"/>
                </mxCell>
                <mxCell id="rIVDowIaaQSxH50mQadC-15" value="fecha_muerte" style="text;strokeColor=none;fillColor=none;align=left;verticalAlign=middle;spacingLeft=4;spacingRight=4;overflow=hidden;points=[[0,0.5],[1,0.5]];portConstraint=eastwest;rotatable=0;" parent="rIVDowIaaQSxH50mQadC-11" vertex="1">
                    <mxGeometry y="150" width="140" height="30" as="geometry"/>
                </mxCell>
                <mxCell id="rIVDowIaaQSxH50mQadC-16" value="Historial de prestamos" style="swimlane;fontStyle=0;childLayout=stackLayout;horizontal=1;startSize=30;horizontalStack=0;resizeParent=1;resizeParentMax=0;resizeLast=0;collapsible=1;marginBottom=0;strokeColor=default;rounded=1;arcSize=0;" parent="zY6Jlw60NXrplqbknU2e-1" vertex="1">
                    <mxGeometry x="120" y="350" width="140" height="180" as="geometry"/>
                </mxCell>
                <mxCell id="rIVDowIaaQSxH50mQadC-17" value="id(PK)" style="text;strokeColor=none;fillColor=none;align=left;verticalAlign=middle;spacingLeft=4;spacingRight=4;overflow=hidden;points=[[0,0.5],[1,0.5]];portConstraint=eastwest;rotatable=0;" parent="rIVDowIaaQSxH50mQadC-16" vertex="1">
                    <mxGeometry y="30" width="140" height="30" as="geometry"/>
                </mxCell>
                <mxCell id="rIVDowIaaQSxH50mQadC-19" value="libro" style="text;strokeColor=none;fillColor=none;align=left;verticalAlign=middle;spacingLeft=4;spacingRight=4;overflow=hidden;points=[[0,0.5],[1,0.5]];portConstraint=eastwest;rotatable=0;" parent="rIVDowIaaQSxH50mQadC-16" vertex="1">
                    <mxGeometry y="60" width="140" height="30" as="geometry"/>
                </mxCell>
                <mxCell id="rIVDowIaaQSxH50mQadC-20" value="fecha_prestamo" style="text;strokeColor=none;fillColor=none;align=left;verticalAlign=middle;spacingLeft=4;spacingRight=4;overflow=hidden;points=[[0,0.5],[1,0.5]];portConstraint=eastwest;rotatable=0;" parent="rIVDowIaaQSxH50mQadC-16" vertex="1">
                    <mxGeometry y="90" width="140" height="30" as="geometry"/>
                </mxCell>
                <mxCell id="rIVDowIaaQSxH50mQadC-21" value="fecha_devolucion" style="text;strokeColor=none;fillColor=none;align=left;verticalAlign=middle;spacingLeft=4;spacingRight=4;overflow=hidden;points=[[0,0.5],[1,0.5]];portConstraint=eastwest;rotatable=0;" parent="rIVDowIaaQSxH50mQadC-16" vertex="1">
                    <mxGeometry y="120" width="140" height="30" as="geometry"/>
                </mxCell>
                <mxCell id="VWUZSfcGtPmFPtVUJYfv-1" value="id_socio(FK)" style="text;strokeColor=none;fillColor=none;align=left;verticalAlign=middle;spacingLeft=4;spacingRight=4;overflow=hidden;points=[[0,0.5],[1,0.5]];portConstraint=eastwest;rotatable=0;" parent="rIVDowIaaQSxH50mQadC-16" vertex="1">
                    <mxGeometry y="150" width="140" height="30" as="geometry"/>
                </mxCell>
                <mxCell id="rIVDowIaaQSxH50mQadC-27" value="" style="endArrow=none;html=1;" parent="zY6Jlw60NXrplqbknU2e-1" source="rIVDowIaaQSxH50mQadC-16" target="rIVDowIaaQSxH50mQadC-0" edge="1">
                    <mxGeometry width="50" height="50" relative="1" as="geometry">
                        <mxPoint x="310" y="540" as="sourcePoint"/>
                        <mxPoint x="360" y="490" as="targetPoint"/>
                    </mxGeometry>
                </mxCell>
                <mxCell id="rIVDowIaaQSxH50mQadC-29" value="" style="endArrow=none;html=1;startArrow=none;" parent="zY6Jlw60NXrplqbknU2e-1" source="rIVDowIaaQSxH50mQadC-23" target="rIVDowIaaQSxH50mQadC-11" edge="1">
                    <mxGeometry width="50" height="50" relative="1" as="geometry">
                        <mxPoint x="300" y="250" as="sourcePoint"/>
                        <mxPoint x="330" y="340" as="targetPoint"/>
                    </mxGeometry>
                </mxCell>
                <mxCell id="rIVDowIaaQSxH50mQadC-30" value="1,2" style="text;html=1;resizable=0;autosize=1;align=center;verticalAlign=middle;points=[];fillColor=none;strokeColor=none;rounded=0;" parent="zY6Jlw60NXrplqbknU2e-1" vertex="1">
                    <mxGeometry x="305" y="200" width="30" height="20" as="geometry"/>
                </mxCell>
                <mxCell id="rIVDowIaaQSxH50mQadC-31" value="1" style="text;html=1;resizable=0;autosize=1;align=center;verticalAlign=middle;points=[];fillColor=none;strokeColor=none;rounded=0;" parent="zY6Jlw60NXrplqbknU2e-1" vertex="1">
                    <mxGeometry x="260" y="200" width="20" height="20" as="geometry"/>
                </mxCell>
                <mxCell id="rIVDowIaaQSxH50mQadC-34" value="n" style="text;html=1;resizable=0;autosize=1;align=center;verticalAlign=middle;points=[];fillColor=none;strokeColor=none;rounded=0;" parent="zY6Jlw60NXrplqbknU2e-1" vertex="1">
                    <mxGeometry x="190" y="330" width="20" height="20" as="geometry"/>
                </mxCell>
                <mxCell id="rIVDowIaaQSxH50mQadC-35" value="1" style="text;html=1;resizable=0;autosize=1;align=center;verticalAlign=middle;points=[];fillColor=none;strokeColor=none;rounded=0;" parent="zY6Jlw60NXrplqbknU2e-1" vertex="1">
                    <mxGeometry x="190" y="255" width="20" height="20" as="geometry"/>
                </mxCell>
                <mxCell id="rIVDowIaaQSxH50mQadC-36" value="1" style="text;html=1;resizable=0;autosize=1;align=center;verticalAlign=middle;points=[];fillColor=none;strokeColor=none;rounded=0;" parent="zY6Jlw60NXrplqbknU2e-1" vertex="1">
                    <mxGeometry x="310" y="440" width="20" height="20" as="geometry"/>
                </mxCell>
                <mxCell id="rIVDowIaaQSxH50mQadC-37" value="n" style="text;html=1;resizable=0;autosize=1;align=center;verticalAlign=middle;points=[];fillColor=none;strokeColor=none;rounded=0;" parent="zY6Jlw60NXrplqbknU2e-1" vertex="1">
                    <mxGeometry x="260" y="440" width="20" height="20" as="geometry"/>
                </mxCell>
                <mxCell id="rIVDowIaaQSxH50mQadC-23" value="Autores" style="swimlane;fontStyle=0;childLayout=stackLayout;horizontal=1;startSize=30;horizontalStack=0;resizeParent=1;resizeParentMax=0;resizeLast=0;collapsible=1;marginBottom=0;strokeColor=default;rounded=1;arcSize=0;" parent="zY6Jlw60NXrplqbknU2e-1" vertex="1">
                    <mxGeometry x="330" y="135" width="140" height="120" as="geometry"/>
                </mxCell>
                <mxCell id="rIVDowIaaQSxH50mQadC-25" value="codigo_autor(PK)(FK)" style="text;strokeColor=none;fillColor=none;align=left;verticalAlign=middle;spacingLeft=4;spacingRight=4;overflow=hidden;points=[[0,0.5],[1,0.5]];portConstraint=eastwest;rotatable=0;" parent="rIVDowIaaQSxH50mQadC-23" vertex="1">
                    <mxGeometry y="30" width="140" height="30" as="geometry"/>
                </mxCell>
                <mxCell id="rIVDowIaaQSxH50mQadC-24" value="isnb_libro(PK)(FK)" style="text;strokeColor=none;fillColor=none;align=left;verticalAlign=middle;spacingLeft=4;spacingRight=4;overflow=hidden;points=[[0,0.5],[1,0.5]];portConstraint=eastwest;rotatable=0;" parent="rIVDowIaaQSxH50mQadC-23" vertex="1">
                    <mxGeometry y="60" width="140" height="30" as="geometry"/>
                </mxCell>
                <mxCell id="E7Hu01_K-q124JHIJ1T2-0" value="tipo_autor" style="text;strokeColor=none;fillColor=none;align=left;verticalAlign=middle;spacingLeft=4;spacingRight=4;overflow=hidden;points=[[0,0.5],[1,0.5]];portConstraint=eastwest;rotatable=0;" vertex="1" parent="rIVDowIaaQSxH50mQadC-23">
                    <mxGeometry y="90" width="140" height="30" as="geometry"/>
                </mxCell>
                <mxCell id="ZZkeQo_jvcY7Ctmspo0B-0" value="" style="endArrow=none;html=1;" parent="zY6Jlw60NXrplqbknU2e-1" source="rIVDowIaaQSxH50mQadC-0" target="rIVDowIaaQSxH50mQadC-23" edge="1">
                    <mxGeometry width="50" height="50" relative="1" as="geometry">
                        <mxPoint x="260" y="194.9999999999999" as="sourcePoint"/>
                        <mxPoint x="560" y="194.9999999999999" as="targetPoint"/>
                    </mxGeometry>
                </mxCell>
                <mxCell id="VWUZSfcGtPmFPtVUJYfv-3" value="" style="endArrow=none;html=1;" parent="zY6Jlw60NXrplqbknU2e-1" source="rIVDowIaaQSxH50mQadC-16" target="rIVDowIaaQSxH50mQadC-7" edge="1">
                    <mxGeometry width="50" height="50" relative="1" as="geometry">
                        <mxPoint x="260" y="440" as="sourcePoint"/>
                        <mxPoint x="330" y="420" as="targetPoint"/>
                    </mxGeometry>
                </mxCell>
                <mxCell id="_inXEisBJD5gA-uvtTAp-0" value="1" style="text;html=1;resizable=0;autosize=1;align=center;verticalAlign=middle;points=[];fillColor=none;strokeColor=none;rounded=0;" parent="zY6Jlw60NXrplqbknU2e-1" vertex="1">
                    <mxGeometry x="520" y="200" width="20" height="20" as="geometry"/>
                </mxCell>
                <mxCell id="_inXEisBJD5gA-uvtTAp-1" value="n" style="text;html=1;resizable=0;autosize=1;align=center;verticalAlign=middle;points=[];fillColor=none;strokeColor=none;rounded=0;" parent="zY6Jlw60NXrplqbknU2e-1" vertex="1">
                    <mxGeometry x="470" y="200" width="20" height="20" as="geometry"/>
                </mxCell>
                <mxCell id="GePOGcyd3BbmEdwYKXH7-0" value="Como el isbn debe actuar como primary key, &lt;br&gt;habiendo 2 autores del mismo libro provocaria &lt;br&gt;una repeticion de dicha PK, por lo que se opto &lt;br&gt;por una tabla intermedia que describa los autores del libro" style="text;html=1;resizable=0;autosize=1;align=center;verticalAlign=middle;points=[];fillColor=none;strokeColor=none;rounded=0;" parent="zY6Jlw60NXrplqbknU2e-1" vertex="1">
                    <mxGeometry x="180" y="50" width="320" height="60" as="geometry"/>
                </mxCell>
            </root>
        </mxGraphModel>
    </diagram>
    <diagram id="rjFpvtUMBj88zyw874Sn" name="Logico">
        <mxGraphModel dx="572" dy="478" grid="1" gridSize="10" guides="1" tooltips="1" connect="1" arrows="1" fold="1" page="1" pageScale="1" pageWidth="850" pageHeight="1100" math="0" shadow="0">
            <root>
                <mxCell id="zzmTsvkYPbidAr1osntV-0"/>
                <mxCell id="zzmTsvkYPbidAr1osntV-1" parent="zzmTsvkYPbidAr1osntV-0"/>
                <mxCell id="RqkHb8136Bv-SV_CRbiu-0" value="libro" style="swimlane;fontStyle=0;childLayout=stackLayout;horizontal=1;startSize=30;horizontalStack=0;resizeParent=1;resizeParentMax=0;resizeLast=0;collapsible=1;marginBottom=0;strokeColor=default;rounded=1;arcSize=0;" parent="zzmTsvkYPbidAr1osntV-1" vertex="1">
                    <mxGeometry x="150" y="145" width="140" height="120" as="geometry"/>
                </mxCell>
                <mxCell id="RqkHb8136Bv-SV_CRbiu-1" value="isbn(PK) VARCHAR(15)" style="text;strokeColor=none;fillColor=none;align=left;verticalAlign=middle;spacingLeft=4;spacingRight=4;overflow=hidden;points=[[0,0.5],[1,0.5]];portConstraint=eastwest;rotatable=0;fontStyle=0" parent="RqkHb8136Bv-SV_CRbiu-0" vertex="1">
                    <mxGeometry y="30" width="140" height="30" as="geometry"/>
                </mxCell>
                <mxCell id="RqkHb8136Bv-SV_CRbiu-2" value="titulo VARCHAR(50)" style="text;strokeColor=none;fillColor=none;align=left;verticalAlign=middle;spacingLeft=4;spacingRight=4;overflow=hidden;points=[[0,0.5],[1,0.5]];portConstraint=eastwest;rotatable=0;" parent="RqkHb8136Bv-SV_CRbiu-0" vertex="1">
                    <mxGeometry y="60" width="140" height="30" as="geometry"/>
                </mxCell>
                <mxCell id="RqkHb8136Bv-SV_CRbiu-3" value="paginas INT" style="text;strokeColor=none;fillColor=none;align=left;verticalAlign=middle;spacingLeft=4;spacingRight=4;overflow=hidden;points=[[0,0.5],[1,0.5]];portConstraint=eastwest;rotatable=0;" parent="RqkHb8136Bv-SV_CRbiu-0" vertex="1">
                    <mxGeometry y="90" width="140" height="30" as="geometry"/>
                </mxCell>
                <mxCell id="RqkHb8136Bv-SV_CRbiu-4" value="socio" style="swimlane;fontStyle=0;childLayout=stackLayout;horizontal=1;startSize=30;horizontalStack=0;resizeParent=1;resizeParentMax=0;resizeLast=0;collapsible=1;marginBottom=0;strokeColor=default;rounded=1;arcSize=0;" parent="zzmTsvkYPbidAr1osntV-1" vertex="1">
                    <mxGeometry x="385" y="360" width="190" height="180" as="geometry"/>
                </mxCell>
                <mxCell id="RqkHb8136Bv-SV_CRbiu-5" value="rut(PK) VARCHAR(12)" style="text;strokeColor=none;fillColor=none;align=left;verticalAlign=middle;spacingLeft=4;spacingRight=4;overflow=hidden;points=[[0,0.5],[1,0.5]];portConstraint=eastwest;rotatable=0;" parent="RqkHb8136Bv-SV_CRbiu-4" vertex="1">
                    <mxGeometry y="30" width="190" height="30" as="geometry"/>
                </mxCell>
                <mxCell id="RqkHb8136Bv-SV_CRbiu-6" value="nombre VARCHAR(50)" style="text;strokeColor=none;fillColor=none;align=left;verticalAlign=middle;spacingLeft=4;spacingRight=4;overflow=hidden;points=[[0,0.5],[1,0.5]];portConstraint=eastwest;rotatable=0;" parent="RqkHb8136Bv-SV_CRbiu-4" vertex="1">
                    <mxGeometry y="60" width="190" height="30" as="geometry"/>
                </mxCell>
                <mxCell id="RqkHb8136Bv-SV_CRbiu-7" value="apellido VARCHAR(50)" style="text;strokeColor=none;fillColor=none;align=left;verticalAlign=middle;spacingLeft=4;spacingRight=4;overflow=hidden;points=[[0,0.5],[1,0.5]];portConstraint=eastwest;rotatable=0;" parent="RqkHb8136Bv-SV_CRbiu-4" vertex="1">
                    <mxGeometry y="90" width="190" height="30" as="geometry"/>
                </mxCell>
                <mxCell id="RqkHb8136Bv-SV_CRbiu-8" value="direccion VARCHAR(250)" style="text;strokeColor=none;fillColor=none;align=left;verticalAlign=middle;spacingLeft=4;spacingRight=4;overflow=hidden;points=[[0,0.5],[1,0.5]];portConstraint=eastwest;rotatable=0;" parent="RqkHb8136Bv-SV_CRbiu-4" vertex="1">
                    <mxGeometry y="120" width="190" height="30" as="geometry"/>
                </mxCell>
                <mxCell id="RqkHb8136Bv-SV_CRbiu-9" value="telefono NUMERIC" style="text;strokeColor=none;fillColor=none;align=left;verticalAlign=middle;spacingLeft=4;spacingRight=4;overflow=hidden;points=[[0,0.5],[1,0.5]];portConstraint=eastwest;rotatable=0;" parent="RqkHb8136Bv-SV_CRbiu-4" vertex="1">
                    <mxGeometry y="150" width="190" height="30" as="geometry"/>
                </mxCell>
                <mxCell id="RqkHb8136Bv-SV_CRbiu-10" value="autor" style="swimlane;fontStyle=0;childLayout=stackLayout;horizontal=1;startSize=30;horizontalStack=0;resizeParent=1;resizeParentMax=0;resizeLast=0;collapsible=1;marginBottom=0;strokeColor=default;rounded=1;arcSize=0;" parent="zzmTsvkYPbidAr1osntV-1" vertex="1">
                    <mxGeometry x="620" y="115" width="140" height="180" as="geometry"/>
                </mxCell>
                <mxCell id="RqkHb8136Bv-SV_CRbiu-11" value="codigo(PK) INT" style="text;strokeColor=none;fillColor=none;align=left;verticalAlign=middle;spacingLeft=4;spacingRight=4;overflow=hidden;points=[[0,0.5],[1,0.5]];portConstraint=eastwest;rotatable=0;" parent="RqkHb8136Bv-SV_CRbiu-10" vertex="1">
                    <mxGeometry y="30" width="140" height="30" as="geometry"/>
                </mxCell>
                <mxCell id="RqkHb8136Bv-SV_CRbiu-12" value="nombre VARCHAR)50)" style="text;strokeColor=none;fillColor=none;align=left;verticalAlign=middle;spacingLeft=4;spacingRight=4;overflow=hidden;points=[[0,0.5],[1,0.5]];portConstraint=eastwest;rotatable=0;" parent="RqkHb8136Bv-SV_CRbiu-10" vertex="1">
                    <mxGeometry y="60" width="140" height="30" as="geometry"/>
                </mxCell>
                <mxCell id="RqkHb8136Bv-SV_CRbiu-13" value="apellido VARCHAR(50)" style="text;strokeColor=none;fillColor=none;align=left;verticalAlign=middle;spacingLeft=4;spacingRight=4;overflow=hidden;points=[[0,0.5],[1,0.5]];portConstraint=eastwest;rotatable=0;" parent="RqkHb8136Bv-SV_CRbiu-10" vertex="1">
                    <mxGeometry y="90" width="140" height="30" as="geometry"/>
                </mxCell>
                <mxCell id="RqkHb8136Bv-SV_CRbiu-14" value="fecha_nacimiento DATE" style="text;strokeColor=none;fillColor=none;align=left;verticalAlign=middle;spacingLeft=4;spacingRight=4;overflow=hidden;points=[[0,0.5],[1,0.5]];portConstraint=eastwest;rotatable=0;" parent="RqkHb8136Bv-SV_CRbiu-10" vertex="1">
                    <mxGeometry y="120" width="140" height="30" as="geometry"/>
                </mxCell>
                <mxCell id="RqkHb8136Bv-SV_CRbiu-15" value="fecha_muerte DATE" style="text;strokeColor=none;fillColor=none;align=left;verticalAlign=middle;spacingLeft=4;spacingRight=4;overflow=hidden;points=[[0,0.5],[1,0.5]];portConstraint=eastwest;rotatable=0;" parent="RqkHb8136Bv-SV_CRbiu-10" vertex="1">
                    <mxGeometry y="150" width="140" height="30" as="geometry"/>
                </mxCell>
                <mxCell id="RqkHb8136Bv-SV_CRbiu-16" value="historial_prestamos" style="swimlane;fontStyle=0;childLayout=stackLayout;horizontal=1;startSize=30;horizontalStack=0;resizeParent=1;resizeParentMax=0;resizeLast=0;collapsible=1;marginBottom=0;strokeColor=default;rounded=1;arcSize=0;" parent="zzmTsvkYPbidAr1osntV-1" vertex="1">
                    <mxGeometry x="130" y="360" width="180" height="180" as="geometry"/>
                </mxCell>
                <mxCell id="RqkHb8136Bv-SV_CRbiu-17" value="id(PK) SERIAL" style="text;strokeColor=none;fillColor=none;align=left;verticalAlign=middle;spacingLeft=4;spacingRight=4;overflow=hidden;points=[[0,0.5],[1,0.5]];portConstraint=eastwest;rotatable=0;" parent="RqkHb8136Bv-SV_CRbiu-16" vertex="1">
                    <mxGeometry y="30" width="180" height="30" as="geometry"/>
                </mxCell>
                <mxCell id="RqkHb8136Bv-SV_CRbiu-19" value="fecha_prestamo DATE" style="text;strokeColor=none;fillColor=none;align=left;verticalAlign=middle;spacingLeft=4;spacingRight=4;overflow=hidden;points=[[0,0.5],[1,0.5]];portConstraint=eastwest;rotatable=0;" parent="RqkHb8136Bv-SV_CRbiu-16" vertex="1">
                    <mxGeometry y="60" width="180" height="30" as="geometry"/>
                </mxCell>
                <mxCell id="RqkHb8136Bv-SV_CRbiu-20" value="fecha_devolucion DATE" style="text;strokeColor=none;fillColor=none;align=left;verticalAlign=middle;spacingLeft=4;spacingRight=4;overflow=hidden;points=[[0,0.5],[1,0.5]];portConstraint=eastwest;rotatable=0;" parent="RqkHb8136Bv-SV_CRbiu-16" vertex="1">
                    <mxGeometry y="90" width="180" height="30" as="geometry"/>
                </mxCell>
                <mxCell id="RqkHb8136Bv-SV_CRbiu-18" value="isbn_libro(FK)  VARCHAR(15)" style="text;strokeColor=none;fillColor=none;align=left;verticalAlign=middle;spacingLeft=4;spacingRight=4;overflow=hidden;points=[[0,0.5],[1,0.5]];portConstraint=eastwest;rotatable=0;" parent="RqkHb8136Bv-SV_CRbiu-16" vertex="1">
                    <mxGeometry y="120" width="180" height="30" as="geometry"/>
                </mxCell>
                <mxCell id="RqkHb8136Bv-SV_CRbiu-21" value="id_socio(FK) VARCHAR(12)" style="text;strokeColor=none;fillColor=none;align=left;verticalAlign=middle;spacingLeft=4;spacingRight=4;overflow=hidden;points=[[0,0.5],[1,0.5]];portConstraint=eastwest;rotatable=0;" parent="RqkHb8136Bv-SV_CRbiu-16" vertex="1">
                    <mxGeometry y="150" width="180" height="30" as="geometry"/>
                </mxCell>
                <mxCell id="RqkHb8136Bv-SV_CRbiu-22" value="" style="endArrow=none;html=1;" parent="zzmTsvkYPbidAr1osntV-1" source="RqkHb8136Bv-SV_CRbiu-16" target="RqkHb8136Bv-SV_CRbiu-0" edge="1">
                    <mxGeometry width="50" height="50" relative="1" as="geometry">
                        <mxPoint x="320" y="550" as="sourcePoint"/>
                        <mxPoint x="370" y="500" as="targetPoint"/>
                    </mxGeometry>
                </mxCell>
                <mxCell id="RqkHb8136Bv-SV_CRbiu-23" value="" style="endArrow=none;html=1;startArrow=none;" parent="zzmTsvkYPbidAr1osntV-1" target="RqkHb8136Bv-SV_CRbiu-10" edge="1">
                    <mxGeometry width="50" height="50" relative="1" as="geometry">
                        <mxPoint x="620" y="205" as="sourcePoint"/>
                        <mxPoint x="410" y="350" as="targetPoint"/>
                    </mxGeometry>
                </mxCell>
                <mxCell id="RqkHb8136Bv-SV_CRbiu-24" value="1,2" style="text;html=1;resizable=0;autosize=1;align=center;verticalAlign=middle;points=[];fillColor=none;strokeColor=none;rounded=0;" parent="zzmTsvkYPbidAr1osntV-1" vertex="1">
                    <mxGeometry x="310" y="210" width="30" height="20" as="geometry"/>
                </mxCell>
                <mxCell id="RqkHb8136Bv-SV_CRbiu-25" value="1" style="text;html=1;resizable=0;autosize=1;align=center;verticalAlign=middle;points=[];fillColor=none;strokeColor=none;rounded=0;" parent="zzmTsvkYPbidAr1osntV-1" vertex="1">
                    <mxGeometry x="290" y="210" width="20" height="20" as="geometry"/>
                </mxCell>
                <mxCell id="RqkHb8136Bv-SV_CRbiu-26" value="n" style="text;html=1;resizable=0;autosize=1;align=center;verticalAlign=middle;points=[];fillColor=none;strokeColor=none;rounded=0;" parent="zzmTsvkYPbidAr1osntV-1" vertex="1">
                    <mxGeometry x="220" y="340" width="20" height="20" as="geometry"/>
                </mxCell>
                <mxCell id="RqkHb8136Bv-SV_CRbiu-27" value="1" style="text;html=1;resizable=0;autosize=1;align=center;verticalAlign=middle;points=[];fillColor=none;strokeColor=none;rounded=0;" parent="zzmTsvkYPbidAr1osntV-1" vertex="1">
                    <mxGeometry x="220" y="265" width="20" height="20" as="geometry"/>
                </mxCell>
                <mxCell id="RqkHb8136Bv-SV_CRbiu-28" value="1" style="text;html=1;resizable=0;autosize=1;align=center;verticalAlign=middle;points=[];fillColor=none;strokeColor=none;rounded=0;" parent="zzmTsvkYPbidAr1osntV-1" vertex="1">
                    <mxGeometry x="365" y="450" width="20" height="20" as="geometry"/>
                </mxCell>
                <mxCell id="RqkHb8136Bv-SV_CRbiu-29" value="n" style="text;html=1;resizable=0;autosize=1;align=center;verticalAlign=middle;points=[];fillColor=none;strokeColor=none;rounded=0;" parent="zzmTsvkYPbidAr1osntV-1" vertex="1">
                    <mxGeometry x="310" y="450" width="20" height="20" as="geometry"/>
                </mxCell>
                <mxCell id="RqkHb8136Bv-SV_CRbiu-30" value="autores" style="swimlane;fontStyle=0;childLayout=stackLayout;horizontal=1;startSize=30;horizontalStack=0;resizeParent=1;resizeParentMax=0;resizeLast=0;collapsible=1;marginBottom=0;strokeColor=default;rounded=1;arcSize=0;" parent="zzmTsvkYPbidAr1osntV-1" vertex="1">
                    <mxGeometry x="340" y="145" width="210" height="120" as="geometry"/>
                </mxCell>
                <mxCell id="RqkHb8136Bv-SV_CRbiu-31" value="codigo_autor(PK)(FK) INT" style="text;strokeColor=none;fillColor=none;align=left;verticalAlign=middle;spacingLeft=4;spacingRight=4;overflow=hidden;points=[[0,0.5],[1,0.5]];portConstraint=eastwest;rotatable=0;" parent="RqkHb8136Bv-SV_CRbiu-30" vertex="1">
                    <mxGeometry y="30" width="210" height="30" as="geometry"/>
                </mxCell>
                <mxCell id="5XdrXLkBxViK4iqesYts-0" value="isnb_libro(PK)(FK) VARCHAR(15)" style="text;strokeColor=none;fillColor=none;align=left;verticalAlign=middle;spacingLeft=4;spacingRight=4;overflow=hidden;points=[[0,0.5],[1,0.5]];portConstraint=eastwest;rotatable=0;" vertex="1" parent="RqkHb8136Bv-SV_CRbiu-30">
                    <mxGeometry y="60" width="210" height="30" as="geometry"/>
                </mxCell>
                <mxCell id="RqkHb8136Bv-SV_CRbiu-32" value="tipo_autor VARCHAR(15)" style="text;strokeColor=none;fillColor=none;align=left;verticalAlign=middle;spacingLeft=4;spacingRight=4;overflow=hidden;points=[[0,0.5],[1,0.5]];portConstraint=eastwest;rotatable=0;" parent="RqkHb8136Bv-SV_CRbiu-30" vertex="1">
                    <mxGeometry y="90" width="210" height="30" as="geometry"/>
                </mxCell>
                <mxCell id="RqkHb8136Bv-SV_CRbiu-33" value="" style="endArrow=none;html=1;" parent="zzmTsvkYPbidAr1osntV-1" source="RqkHb8136Bv-SV_CRbiu-0" target="RqkHb8136Bv-SV_CRbiu-30" edge="1">
                    <mxGeometry width="50" height="50" relative="1" as="geometry">
                        <mxPoint x="270" y="204.9999999999999" as="sourcePoint"/>
                        <mxPoint x="570" y="204.9999999999999" as="targetPoint"/>
                    </mxGeometry>
                </mxCell>
                <mxCell id="RqkHb8136Bv-SV_CRbiu-34" value="" style="endArrow=none;html=1;" parent="zzmTsvkYPbidAr1osntV-1" source="RqkHb8136Bv-SV_CRbiu-16" target="RqkHb8136Bv-SV_CRbiu-4" edge="1">
                    <mxGeometry width="50" height="50" relative="1" as="geometry">
                        <mxPoint x="315" y="450" as="sourcePoint"/>
                        <mxPoint x="385" y="430" as="targetPoint"/>
                    </mxGeometry>
                </mxCell>
                <mxCell id="RqkHb8136Bv-SV_CRbiu-35" value="1" style="text;html=1;resizable=0;autosize=1;align=center;verticalAlign=middle;points=[];fillColor=none;strokeColor=none;rounded=0;" parent="zzmTsvkYPbidAr1osntV-1" vertex="1">
                    <mxGeometry x="600" y="210" width="20" height="20" as="geometry"/>
                </mxCell>
                <mxCell id="RqkHb8136Bv-SV_CRbiu-36" value="n" style="text;html=1;resizable=0;autosize=1;align=center;verticalAlign=middle;points=[];fillColor=none;strokeColor=none;rounded=0;" parent="zzmTsvkYPbidAr1osntV-1" vertex="1">
                    <mxGeometry x="550" y="210" width="20" height="20" as="geometry"/>
                </mxCell>
                <mxCell id="faOcs1HYyf5n4FysPsfv-0" value="" style="endArrow=none;html=1;" parent="zzmTsvkYPbidAr1osntV-1" source="RqkHb8136Bv-SV_CRbiu-30" target="RqkHb8136Bv-SV_CRbiu-10" edge="1">
                    <mxGeometry width="50" height="50" relative="1" as="geometry">
                        <mxPoint x="580" y="370" as="sourcePoint"/>
                        <mxPoint x="630" y="320" as="targetPoint"/>
                    </mxGeometry>
                </mxCell>
            </root>
        </mxGraphModel>
    </diagram>
</mxfile>